# xmcd
#
# Track frame offsets:
#	150
#	13655
#	33748
#	54880
#	73244
#	87150
#	102775
#	124676
#	139762
#	154995
#
# Disc length: 2308 seconds
#
# Revision: 1
# Processed by: cddbd v1.5.2PL0 Copyright (c) Steve Scherf et al.
# Submitted via: audiograbber 1.83.01
#
DISCID=8309020a
DTITLE=SA - SA - Idols 2012
DYEAR=2012
DGENRE=Pop
TTITLE0=Tiina Puska - Undo It
TTITLE1=Torsten Borg - Chasing Cars
TTITLE2=Heikki Tuomi - Clocks
TTITLE3=Diandra Flores - Hurt
TTITLE4=Niina Kähönen - ( You Make Me Feel ) Like A Natural Woman
TTITLE5=Ina Forsman - Price Tag
TTITLE6=Petri Piippo - Don't Look Back In Anger
TTITLE7=Sini Tuominen - Halo
TTITLE8=Susanna Erkinheimo - House Of The Rising Sun
TTITLE9=Arttu Kettunen - Angels
EXTD=
EXTT0=
EXTT1=
EXTT2=
EXTT3=
EXTT4=
EXTT5=
EXTT6=
EXTT7=
EXTT8=
EXTT9=
PLAYORDER=
